<svg xmlns="http://www.w3.org/2000/svg" viewBox="0 0 800 900" style="background: white;">
  <!-- Title -->
  <text x="400" y="30" text-anchor="middle" font-size="24" font-weight="bold" fill="#2c3e50">
    KORA Architektur-Übersicht
  </text>
  <text x="400" y="55" text-anchor="middle" font-size="14" fill="#7f8c8d">
    Kohärenzorientierte Rechenarchitektur für Big-Data-Langläufer
  </text>
  
  <!-- KORA-Net-Layer -->
  <rect x="50" y="80" width="700" height="80" fill="#3498db" stroke="#2980b9" stroke-width="2" rx="5"/>
  <text x="400" y="110" text-anchor="middle" font-size="18" font-weight="bold" fill="white">
    KORA-Net-Layer
  </text>
  <text x="400" y="135" text-anchor="middle" font-size="12" fill="white">
    Epochen-basierte I/O-Bündelung • Keine spontanen Interrupts
  </text>
  
  <!-- Arrow down -->
  <path d="M 400 160 L 400 190" stroke="#34495e" stroke-width="3" fill="none" marker-end="url(#arrowhead)"/>
  <text x="420" y="180" font-size="11" fill="#34495e">Gebündelte Daten</text>
  
  <!-- KORA-Core -->
  <rect x="100" y="200" width="600" height="100" fill="#e74c3c" stroke="#c0392b" stroke-width="2" rx="5"/>
  <text x="400" y="230" text-anchor="middle" font-size="18" font-weight="bold" fill="white">
    KORA-Core (Orchestrator)
  </text>
  <text x="400" y="255" text-anchor="middle" font-size="11" fill="white">
    • Deterministisches Scheduling • SRDB-Verwaltung (Globales Datenmodell)
  </text>
  <text x="400" y="275" text-anchor="middle" font-size="11" fill="white">
    • Task-Generierung • Kohärenz-Garantie • Kein Preemptive Multitasking
  </text>
  
  <!-- Arrow down -->
  <path d="M 400 300 L 400 330" stroke="#34495e" stroke-width="3" fill="none" marker-end="url(#arrowhead)"/>
  <text x="420" y="320" font-size="11" fill="#34495e">Task-Queue</text>
  
  <!-- SRDB -->
  <rect x="100" y="340" width="600" height="80" fill="#9b59b6" stroke="#8e44ad" stroke-width="2" rx="5"/>
  <text x="400" y="370" text-anchor="middle" font-size="18" font-weight="bold" fill="white">
    SRDB (Single Resonance Data Bus)
  </text>
  <text x="400" y="395" text-anchor="middle" font-size="12" fill="white">
    Global kohärenter Speicher • Alle Worker sehen denselben Zustand
  </text>
  
  <!-- Arrows to Workers -->
  <path d="M 200 420 L 200 470" stroke="#34495e" stroke-width="2" fill="none" marker-end="url(#arrowhead)"/>
  <path d="M 400 420 L 400 470" stroke="#34495e" stroke-width="2" fill="none" marker-end="url(#arrowhead)"/>
  <path d="M 600 420 L 600 470" stroke="#34495e" stroke-width="2" fill="none" marker-end="url(#arrowhead)"/>
  
  <!-- Worker Tiles -->
  <!-- Worker 1 -->
  <rect x="50" y="480" width="120" height="140" fill="#16a085" stroke="#138d75" stroke-width="2" rx="5"/>
  <text x="110" y="510" text-anchor="middle" font-size="14" font-weight="bold" fill="white">
    Worker-Tile 1
  </text>
  <rect x="60" y="525" width="100" height="25" fill="#1abc9c" stroke="#16a085" stroke-width="1" rx="3"/>
  <text x="110" y="542" text-anchor="middle" font-size="10" fill="white">Vektor-ALU</text>
  <rect x="60" y="555" width="100" height="25" fill="#1abc9c" stroke="#16a085" stroke-width="1" rx="3"/>
  <text x="110" y="572" text-anchor="middle" font-size="10" fill="white">Scratchpad</text>
  <rect x="60" y="585" width="100" height="25" fill="#1abc9c" stroke="#16a085" stroke-width="1" rx="3"/>
  <text x="110" y="602" text-anchor="middle" font-size="10" fill="white">Status-Flags</text>
  
  <!-- Worker 2 -->
  <rect x="200" y="480" width="120" height="140" fill="#16a085" stroke="#138d75" stroke-width="2" rx="5"/>
  <text x="260" y="510" text-anchor="middle" font-size="14" font-weight="bold" fill="white">
    Worker-Tile 2
  </text>
  <rect x="210" y="525" width="100" height="25" fill="#1abc9c" stroke="#16a085" stroke-width="1" rx="3"/>
  <text x="260" y="542" text-anchor="middle" font-size="10" fill="white">Vektor-ALU</text>
  <rect x="210" y="555" width="100" height="25" fill="#1abc9c" stroke="#16a085" stroke-width="1" rx="3"/>
  <text x="260" y="572" text-anchor="middle" font-size="10" fill="white">Scratchpad</text>
  <rect x="210" y="585" width="100" height="25" fill="#1abc9c" stroke="#16a085" stroke-width="1" rx="3"/>
  <text x="260" y="602" text-anchor="middle" font-size="10" fill="white">Status-Flags</text>
  
  <!-- Worker 3 -->
  <rect x="350" y="480" width="120" height="140" fill="#16a085" stroke="#138d75" stroke-width="2" rx="5"/>
  <text x="410" y="510" text-anchor="middle" font-size="14" font-weight="bold" fill="white">
    Worker-Tile 3
  </text>
  <rect x="360" y="525" width="100" height="25" fill="#1abc9c" stroke="#16a085" stroke-width="1" rx="3"/>
  <text x="410" y="542" text-anchor="middle" font-size="10" fill="white">Vektor-ALU</text>
  <rect x="360" y="555" width="100" height="25" fill="#1abc9c" stroke="#16a085" stroke-width="1" rx="3"/>
  <text x="410" y="572" text-anchor="middle" font-size="10" fill="white">Scratchpad</text>
  <rect x="360" y="585" width="100" height="25" fill="#1abc9c" stroke="#16a085" stroke-width="1" rx="3"/>
  <text x="410" y="602" text-anchor="middle" font-size="10" fill="white">Status-Flags</text>
  
  <!-- Dots (more workers) -->
  <text x="510" y="550" font-size="40" fill="#16a085">...</text>
  
  <!-- Worker N -->
  <rect x="550" y="480" width="120" height="140" fill="#16a085" stroke="#138d75" stroke-width="2" rx="5"/>
  <text x="610" y="510" text-anchor="middle" font-size="14" font-weight="bold" fill="white">
    Worker-Tile 256
  </text>
  <rect x="560" y="525" width="100" height="25" fill="#1abc9c" stroke="#16a085" stroke-width="1" rx="3"/>
  <text x="610" y="542" text-anchor="middle" font-size="10" fill="white">Vektor-ALU</text>
  <rect x="560" y="555" width="100" height="25" fill="#1abc9c" stroke="#16a085" stroke-width="1" rx="3"/>
  <text x="610" y="572" text-anchor="middle" font-size="10" fill="white">Scratchpad</text>
  <rect x="560" y="585" width="100" height="25" fill="#1abc9c" stroke="#16a085" stroke-width="1" rx="3"/>
  <text x="610" y="602" text-anchor="middle" font-size="10" fill="white">Status-Flags</text>
  
  <!-- Arrows from Workers back -->
  <path d="M 110 620 L 110 660" stroke="#34495e" stroke-width="2" fill="none" marker-end="url(#arrowhead)"/>
  <path d="M 260 620 L 260 660" stroke="#34495e" stroke-width="2" fill="none" marker-end="url(#arrowhead)"/>
  <path d="M 410 620 L 410 660" stroke="#34495e" stroke-width="2" fill="none" marker-end="url(#arrowhead)"/>
  <path d="M 610 620 L 610 660" stroke="#34495e" stroke-width="2" fill="none" marker-end="url(#arrowhead)"/>
  
  <text x="120" y="650" font-size="10" fill="#34495e">Results</text>
  
  <!-- Result Aggregation -->
  <rect x="150" y="670" width="500" height="60" fill="#f39c12" stroke="#e67e22" stroke-width="2" rx="5"/>
  <text x="400" y="695" text-anchor="middle" font-size="16" font-weight="bold" fill="white">
    Result-Aggregation (im KORA-Core)
  </text>
  <text x="400" y="715" text-anchor="middle" font-size="11" fill="white">
    Gebündelte Ergebnis-Verarbeitung • Keine Interrupts • Deterministisch
  </text>
  
  <!-- Key Principles Box -->
  <rect x="50" y="760" width="700" height="120" fill="#ecf0f1" stroke="#bdc3c7" stroke-width="2" rx="5"/>
  <text x="400" y="785" text-anchor="middle" font-size="16" font-weight="bold" fill="#2c3e50">
    Kernprinzipien
  </text>
  
  <text x="70" y="810" font-size="12" fill="#2c3e50">
    ✓ Globale Kohärenz: Ein zentrales Datenmodell (SRDB) für alle Worker
  </text>
  <text x="70" y="830" font-size="12" fill="#2c3e50">
    ✓ Determinismus: Unterbrechungsfreie Ausführung, bit-identische Reproduzierbarkeit
  </text>
  <text x="70" y="850" font-size="12" fill="#2c3e50">
    ✓ Spezialisierung: Passive Worker ohne Scheduling-Autonomie
  </text>
  <text x="70" y="870" font-size="12" fill="#2c3e50">
    ✓ Effizienz: Epochen-basiertes I/O, keine spontanen Interrupts, minimaler Overhead
  </text>
  
  <!-- Arrow marker definition -->
  <defs>
    <marker id="arrowhead" markerWidth="10" markerHeight="10" refX="9" refY="3" orient="auto">
      <polygon points="0 0, 10 3, 0 6" fill="#34495e" />
    </marker>
  </defs>
  
  <!-- Footer -->
  <text x="400" y="895" text-anchor="middle" font-size="10" fill="#95a5a6">
    KORA Project • Frank Meyer &amp; Claude • CC-BY-SA 4.0 • Version 1.0 (2025)
  </text>
</svg>
